<svg xmlns="http://www.w3.org/2000/svg" width="31.969" height="23" viewBox="0 0 31.969 23"><defs><style>.a{fill:#0a0553;}.b{fill:#7742ff;}</style></defs><g transform="translate(-1215 -65)"><path class="a" d="M242.069,202.835l3.692,3.692a2.337,2.337,0,0,1-.005,3.306l-5.273,5.272L231.3,205.9l3.053-3.05a5.453,5.453,0,0,1,7.713-.012Z" transform="translate(1000.526 -135.825)"/><path class="b" d="M80.97,195.626a2.53,2.53,0,0,1,1.279.691l5.626,5.626.011-.011,9.206,9.234-6.139,6.14a4.689,4.689,0,0,1-6.622-.2L72.9,205.668a2.345,2.345,0,0,1-.1-3.311,2.177,2.177,0,0,1,1.238-.613l3.758-.534.534-3.758a2.184,2.184,0,0,1,2.646-1.826Z" transform="translate(1142.842 -130.578)"/></g></svg>